<?xml version="1.0" encoding="UTF-8" standalone="no"?><!DOCTYPE svg PUBLIC "-//W3C//DTD SVG 1.1//EN" "http://www.w3.org/Graphics/SVG/1.1/DTD/svg11.dtd"><svg width="100%" height="100%" viewBox="0 0 343 92" version="1.1" xmlns="http://www.w3.org/2000/svg" xmlns:xlink="http://www.w3.org/1999/xlink" xml:space="preserve" xmlns:serif="http://www.serif.com/" style="fill-rule:evenodd;clip-rule:evenodd;stroke-linejoin:round;stroke-miterlimit:2;"><path d="M84.5,42.326c-0,1.863 -0.231,3.527 -0.691,4.993c-0.461,1.465 -1.084,2.758 -1.869,3.878c-0.785,1.12 -1.69,2.078 -2.716,2.873c-1.026,0.796 -2.099,1.445 -3.219,1.947c-1.12,0.503 -2.25,0.869 -3.391,1.099c-1.141,0.231 -2.214,0.346 -3.219,0.346l-18.465,-0l0,-8.165l18.465,0c1.047,-0.083 1.994,-0.298 2.842,-0.643c0.848,-0.346 1.575,-0.812 2.182,-1.398c0.608,-0.586 1.079,-1.293 1.414,-2.12c0.335,-0.826 0.502,-1.763 0.502,-2.81l0,-3.706c-0.105,-1.025 -0.324,-1.967 -0.659,-2.826c-0.335,-0.858 -0.791,-1.591 -1.366,-2.198c-0.576,-0.607 -1.272,-1.083 -2.089,-1.429c-0.816,-0.345 -1.758,-0.518 -2.826,-0.518l-18.402,0c-1.088,0 -1.915,0.283 -2.481,0.848c-0.565,0.565 -0.847,1.382 -0.847,2.449l-0,33.57l-8.165,-0l-0,-33.57c-0,-2.093 0.382,-3.873 1.146,-5.338c0.764,-1.465 1.717,-2.648 2.858,-3.549c1.141,-0.9 2.381,-1.554 3.721,-1.962c1.34,-0.408 2.575,-0.613 3.705,-0.613l18.465,0c1.842,0 3.496,0.236 4.962,0.707c1.465,0.471 2.758,1.099 3.878,1.884c1.12,0.785 2.072,1.691 2.857,2.716c0.786,1.026 1.435,2.099 1.947,3.219c0.513,1.12 0.885,2.251 1.115,3.392c0.231,1.141 0.346,2.214 0.346,3.218l-0,3.706Z" style="fill-rule:nonzero;"/><rect x="91.534" y="23.484" width="8.165" height="45.031" style="fill-rule:nonzero;"/><path d="M154.244,38.62c0,1.864 -0.23,3.528 -0.69,4.993c-0.461,1.466 -1.084,2.759 -1.869,3.879c-0.785,1.12 -1.69,2.077 -2.716,2.873c-1.026,0.795 -2.099,1.45 -3.219,1.963c-1.12,0.512 -2.25,0.884 -3.391,1.114c-1.141,0.231 -2.214,0.346 -3.219,0.346l17.051,14.728l-12.623,-0l-17.021,-14.728l-5.872,-0l0,-8.165l18.465,0c1.026,-0.084 1.962,-0.298 2.81,-0.644c0.848,-0.345 1.581,-0.811 2.199,-1.397c0.617,-0.586 1.093,-1.293 1.428,-2.12c0.335,-0.827 0.503,-1.774 0.503,-2.842l-0,-5.15c-0,-0.46 -0.058,-0.811 -0.173,-1.052c-0.115,-0.24 -0.262,-0.418 -0.44,-0.533c-0.178,-0.116 -0.366,-0.184 -0.565,-0.204c-0.199,-0.021 -0.382,-0.032 -0.549,-0.032l-26.944,0l0,36.867l-8.164,-0l-0,-40.918c-0,-0.565 0.104,-1.099 0.314,-1.601c0.209,-0.503 0.497,-0.942 0.863,-1.319c0.367,-0.377 0.801,-0.67 1.304,-0.879c0.502,-0.21 1.046,-0.315 1.632,-0.315l30.995,0c1.821,0 3.36,0.33 4.616,0.99c1.256,0.659 2.276,1.486 3.062,2.48c0.785,0.995 1.35,2.068 1.695,3.219c0.346,1.152 0.518,2.23 0.518,3.235l0,5.212Z" style="fill-rule:nonzero;"/><path d="M206.624,68.516l-8.165,-0l-0,-11.054l-28.702,-0l0,11.054l-8.164,-0l-0,-22.516c-0,-3.287 0.565,-6.312 1.695,-9.075c1.131,-2.764 2.701,-5.14 4.711,-7.129c2.009,-1.988 4.386,-3.538 7.128,-4.647c2.742,-1.11 5.736,-1.665 8.981,-1.665l18.402,0c0.565,0 1.099,0.105 1.601,0.315c0.503,0.209 0.942,0.502 1.319,0.879c0.377,0.377 0.67,0.816 0.88,1.319c0.209,0.502 0.314,1.036 0.314,1.601l-0,40.918Zm-36.867,-19.219l28.702,0l-0,-17.648l-14.351,0c-0.251,0 -0.78,0.037 -1.586,0.11c-0.806,0.073 -1.737,0.256 -2.795,0.55c-1.057,0.293 -2.172,0.743 -3.344,1.35c-1.172,0.607 -2.25,1.444 -3.234,2.512c-0.984,1.068 -1.796,2.402 -2.434,4.004c-0.639,1.601 -0.958,3.543 -0.958,5.825l0,3.297Z" style="fill-rule:nonzero;"/><path d="M256.805,31.649l-17.994,0l0,36.867l-8.165,-0l0,-36.867l-18.025,0l0,-8.165l44.184,0l-0,8.165Z" style="fill-rule:nonzero;"/><path d="M299.826,50.114l-25.781,-0l-0,-8.228l25.781,0l-0,8.228Zm3.674,18.402l-29.455,-0c-1.131,-0 -2.366,-0.199 -3.706,-0.597c-1.34,-0.398 -2.58,-1.052 -3.721,-1.963c-1.141,-0.91 -2.094,-2.093 -2.858,-3.548c-0.764,-1.455 -1.146,-3.24 -1.146,-5.354l0,-29.456c0,-0.565 0.105,-1.099 0.314,-1.601c0.209,-0.503 0.497,-0.942 0.864,-1.319c0.366,-0.377 0.8,-0.67 1.303,-0.879c0.502,-0.21 1.047,-0.315 1.633,-0.315l36.772,0l0,8.165l-32.721,0l-0,25.405c-0,1.067 0.282,1.884 0.848,2.449c0.565,0.565 1.392,0.848 2.48,0.848l29.393,-0l0,8.165Z" style="fill-rule:nonzero;"/></svg>