<?xml version="1.0" encoding="UTF-8" standalone="no"?><!DOCTYPE svg PUBLIC "-//W3C//DTD SVG 1.1//EN" "http://www.w3.org/Graphics/SVG/1.1/DTD/svg11.dtd"><svg width="100%" height="100%" viewBox="0 0 197 144" version="1.1" xmlns="http://www.w3.org/2000/svg" xmlns:xlink="http://www.w3.org/1999/xlink" xml:space="preserve" xmlns:serif="http://www.serif.com/" style="fill-rule:evenodd;clip-rule:evenodd;stroke-linejoin:round;stroke-miterlimit:2;"><g><path d="M98.553,0.095c0.953,-0.324 1.915,0.294 2.878,0.218c2.89,0.569 5.936,-0.093 8.707,1.151c4.257,1.386 7.875,4.104 11.228,6.998c3.552,3.988 6.585,8.846 6.833,14.32c-0.004,1.762 0.545,3.495 0.258,5.265c-0.562,4.431 -0.007,9.147 -1.783,13.354c-0.423,1.171 -1.67,1.697 -2.715,2.183c-1.574,-2.924 0.962,-7.527 -2.298,-9.611c-0.328,3.106 -1.092,6.175 -1.069,9.313c-0.406,1.108 0.182,2.07 0.678,2.963c1.072,1.359 3.013,1.35 4.379,2.246c1.72,1.078 0.741,3.545 -0.301,4.808c-2.325,3.278 -6.618,3.966 -10.031,5.53c-3.148,1.286 -3.922,5.169 -6.948,6.601c-3.505,1.918 -7.706,1.667 -11.572,1.67c-4.193,0.07 -8.84,-0.516 -11.998,-3.555c-1.095,-1.832 -2.305,-3.595 -3.978,-4.948c-3.149,-1.385 -6.492,-2.341 -9.482,-4.087c-2.166,-1.273 -3.572,-3.684 -2.914,-6.194c1.32,-1.72 3.926,-1.591 5.126,-3.47c1.125,-4.11 -0.43,-8.34 0.381,-12.478c-0.41,-3.267 1.425,-5.989 2.907,-8.697c0.552,-3.39 2.407,-6.304 3.439,-9.515c-3.019,0.599 -4.309,3.711 -5.341,6.29c-1.101,2.6 -2.755,4.974 -3.466,7.732c-0.364,4.687 0.02,9.399 -0.172,14.092c-0.106,0.777 -0.942,1.938 -1.29,0.017c-2.222,-3.013 -2.315,-6.919 -2.761,-10.487c-0.893,-6.711 0.648,-13.851 4.666,-19.354c3.003,-3.515 5.933,-7.295 10.329,-9.187c4.96,-2.851 10.893,-2.156 16.31,-3.168m-13.549,30.763c-3.588,0.678 -6.419,3.743 -6.905,7.345c-0.513,2.966 -0.916,6.376 0.896,8.992c1.386,1.525 3.545,1.631 5.453,1.237c3.275,-0.837 6.221,-2.986 8.024,-5.831c1.944,-2.47 2.215,-6.28 0.284,-8.836c-1.839,-2.193 -4.891,-3.519 -7.752,-2.907m23.812,0.016c-3.493,0.725 -7.141,2.997 -7.723,6.787c0.215,3.297 2.117,6.227 4.363,8.539c1.392,1.508 3.27,2.606 5.327,2.87c3.278,-0.082 6.459,-2.516 7.091,-5.781c-0.781,-2.708 -0.298,-5.824 -1.918,-8.251c-1.277,-2.649 -4.177,-4.494 -7.14,-4.164m-11.943,13.133c-1.19,1.009 -1.69,2.56 -2.374,3.912c-1.128,3.05 -2.179,6.3 -1.998,9.594c1.042,0.096 1.975,-0.43 2.94,-0.727c2.048,-0.84 4.22,0.456 6.314,0.38c-0.556,-2.288 -0.579,-4.683 -1.34,-6.935c-0.744,-1.905 -0.684,-4.074 -1.736,-5.854c-0.532,-0.35 -1.174,-0.588 -1.806,-0.37Z" style="fill:#fcfcfc;fill-rule:nonzero;"/><path d="M0.278,18.112c3.063,3.671 4.882,8.407 8.298,11.863c4.584,4.792 8.866,9.878 13.228,14.882c3.304,4.16 7.617,7.408 10.921,11.572c2.311,2.311 4.61,4.643 6.948,6.928c7.375,5.745 14.73,11.512 22.092,17.277c7.193,6.025 15.391,10.665 23.239,15.765c2.795,1.326 5.745,2.318 8.49,3.763c7.794,4.128 16.109,7.164 24.482,9.869c6.201,1.67 12.356,3.535 18.534,5.305c2.129,0.674 4.567,0.221 6.528,1.455c-0.007,0.116 -0.017,0.354 -0.023,0.473c-2.325,1.409 -4.842,2.573 -7.534,3.056c-5.801,0.568 -11.231,-1.978 -16.526,-3.949c-14.224,-5.464 -28.137,-11.767 -41.557,-18.98c-4.025,-2.56 -8.143,-4.994 -11.923,-7.914c-2.172,-1.951 -4.643,-4.213 -7.745,-4.19c8.261,8.446 18.56,14.664 29.093,19.912c12.908,6.155 26.232,11.38 39.52,16.645c2.706,1.343 5.877,1.498 8.414,3.198c0.949,0.708 1.379,1.816 1.703,2.917c-1.521,0.116 -3.033,-0.069 -4.498,-0.476c-7.788,-1.756 -15.712,-3.106 -23.232,-5.86c-7.101,-2.487 -13.983,-5.53 -20.849,-8.596c-12.679,-5.629 -24.36,-13.255 -35.757,-21.106c-5.585,-4.415 -10.586,-9.498 -16.162,-13.926c-8.998,-7.974 -16.334,-17.594 -23.179,-27.43c-4.25,-6.403 -8.249,-13.086 -10.719,-20.398c-1.154,-2.524 -1.68,-5.292 -1.878,-8.047c-0.397,-1.319 -0.057,-2.675 0.092,-4.008Z" style="fill:#fcfcfc;fill-rule:nonzero;"/><path d="M195.81,20.291c0.288,-0.453 0.328,0.625 0.46,0.831c-0.499,4.977 -2.365,9.633 -4.227,14.224c-1.313,3.816 -3.962,6.938 -5.622,10.582c-4.841,9.886 -11.254,19.149 -19.74,26.246c-5.001,4.938 -10.186,9.667 -15.626,14.122c-4.257,3.809 -9.347,6.478 -13.894,9.914c-5.93,3.86 -11.873,7.825 -18.321,10.772c-2.97,0.112 -5.662,-1.75 -8.477,-2.553c3.632,-2.59 7.789,-4.498 11.589,-6.879c3.704,-2.378 7.798,-4.161 11.194,-7.008c0.559,-0.966 1.548,-1.793 1.707,-2.943c-3.304,0.122 -5.913,2.738 -8.639,4.286c-5.321,3.085 -10.731,6.025 -16.066,9.088c-1.16,0.823 -2.553,1.203 -3.859,1.729c-0.688,0.318 -1.277,-0.334 -1.888,-0.542c-1.323,-0.731 -3.103,-0.876 -3.962,-2.236c6.449,-2.847 12.778,-5.959 19.069,-9.144c16.092,-10.1 31.289,-21.619 45.678,-34.007c10.437,-11.939 21.093,-23.772 30.624,-36.482Z" style="fill:#fcfcfc;fill-rule:nonzero;"/><path d="M77.358,63.172c3.105,0.771 5.387,3.939 5.701,7.114c0.295,2.338 -0.129,4.937 1.168,7.064c2.011,3.975 6.717,5.569 10.917,5.662c4.111,0.684 8.658,0.347 12.177,-2.094c3.717,-3.671 2.672,-9.448 5.037,-13.814c0.949,-2.126 3.495,-2.715 5.575,-2.999c-0.228,2.417 -0.466,4.821 -1.098,7.176c-0.77,2.838 -0.006,5.903 -1.299,8.619c-1.277,2.655 -3.116,4.99 -4.918,7.298c-1.898,1.998 -4.25,4.167 -7.203,4.015c-5.083,-0.089 -10.315,1.181 -15.246,-0.578c-4.114,-1.34 -5.225,-6.01 -8.169,-8.728c-1.918,-1.733 -2.721,-4.336 -2.692,-6.872c0.143,-3.853 -0.704,-7.666 -0.304,-11.516c0.086,-0.086 0.265,-0.261 0.354,-0.347Z" style="fill:#fcfcfc;fill-rule:nonzero;"/><path d="M88.619,67.825l1.501,-0.05c0.311,1.386 0.738,2.931 0,4.244c-2.315,0.625 -3.548,-3.155 -1.501,-4.194Z" style="fill:#fcfcfc;fill-rule:nonzero;"/><path d="M104.126,67.861c0.513,0.096 1.022,0.199 1.535,0.305c0.472,1.382 0.287,3.042 -0.652,4.193c-1.816,-0.102 -1.144,-3.032 -1.23,-4.21c0.086,-0.069 0.261,-0.215 0.347,-0.288Z" style="fill:#fcfcfc;fill-rule:nonzero;"/><path d="M96.873,68.232c0.91,0.036 2.064,1.032 1.251,2.169c0.625,1.095 -0.143,1.684 -0.751,2.256c-1.736,0.975 -2.014,-0.873 -2.226,-1.925c0.251,-1.005 0.39,-2.527 1.726,-2.5Z" style="fill:#fcfcfc;fill-rule:nonzero;"/><path d="M92.237,68.447c1.634,-0.526 2.566,1.65 2.252,2.953c0.152,1.459 -1.667,0.963 -2.649,0.982c-0.139,-1.336 -0.023,-2.669 0.397,-3.935Z" style="fill:#fcfcfc;fill-rule:nonzero;"/><path d="M99.817,68.427c2.384,-1.029 2.153,2.084 2.282,3.297c0.145,1.465 -1.67,0.969 -2.656,0.989c-0.152,-1.452 0.139,-2.871 0.374,-4.286Z" style="fill:#fcfcfc;fill-rule:nonzero;"/><path d="M87.855,77.336c1.574,-0.142 2.943,1.446 2.662,2.987c-2.209,0.81 -2.49,-1.555 -2.662,-2.987Z" style="fill:#fcfcfc;fill-rule:nonzero;"/><path d="M91.496,77.677c0.632,0.39 2.1,-0.493 2.619,0.407c0.381,1.167 -0.168,2.715 -1.273,3.251c-1.052,-0.827 -1.277,-2.378 -1.346,-3.658Z" style="fill:#fcfcfc;fill-rule:nonzero;"/><path d="M102.168,77.74c1.422,-0.43 2.494,1.495 1.591,2.593c-0.407,0.512 -0.837,1.389 -1.601,1.28c-0.42,-1.198 -1.385,-3.017 0.01,-3.873Z" style="fill:#fcfcfc;fill-rule:nonzero;"/><path d="M96.192,78.038c0.82,-0.205 1.604,0.191 2.233,0.691c0.347,1.25 -0.626,3.469 -2.21,2.854c-1.266,-0.774 -0.879,-2.583 -0.023,-3.545Z" style="fill:#fcfcfc;fill-rule:nonzero;"/><path d="M33.072,99.279c2.007,-0.324 4.322,-0.367 5.794,1.274c2.084,3.062 1.759,7.067 3.707,10.186c2.544,4.299 6.909,7.315 11.536,9.012c-0.215,2.129 -1.214,4.114 -1.618,6.211c0.626,3.618 2.941,6.921 6.162,8.714c2.877,1.217 5.794,-1.055 8.631,-0.023c0.744,0.926 1.416,2.371 0.678,3.495c-1.491,2.821 -5.361,3.165 -8.191,3.013c-6.062,-1.339 -11.996,-5.605 -13.735,-11.803c-1.075,-2.014 0.119,-4.491 -1.062,-6.472c-0.982,-1.512 -2.262,-2.805 -3.614,-3.982c-2.438,-2.765 -3.704,-6.27 -5.414,-9.482c-1.406,-2.86 -4.247,-4.782 -7.243,-5.681c0.82,-2.011 2.315,-3.688 4.369,-4.462Z" style="fill:#fcfcfc;fill-rule:nonzero;"/><path d="M156.098,103.245c2.143,-0.367 4.898,-0.119 6.188,1.878c0.413,0.87 1.557,1.568 1.61,2.576c-1.759,0.516 -3.386,1.343 -4.808,2.514c-4.171,4.465 -6.056,10.669 -10.792,14.66c-0.654,0.411 -0.869,1.171 -1.088,1.856c-0.264,2.619 -0.668,5.255 -1.59,7.729c-2.127,4.477 -6.816,7.117 -11.423,8.406c-2.401,0.358 -4.978,1.128 -7.293,-0.039c-1.442,-0.615 -3.184,-1.313 -3.621,-2.997c-0.671,-1.203 0.093,-2.804 1.396,-3.188c2.407,-0.277 4.448,1.452 6.845,1.227c3.744,-0.784 7.408,-3.376 8.278,-7.269c1.174,-2.887 -1.653,-5.222 -1.964,-7.874c3.396,-1.062 6.776,-2.732 8.903,-5.688c2.301,-2.411 2.702,-5.838 4.157,-8.715c0.889,-2.378 2.973,-4.028 5.202,-5.076Z" style="fill:#fcfcfc;fill-rule:nonzero;"/><path d="M73.419,108.549c0.351,-0.158 0.685,-0.125 1.002,0.093c1.945,1.138 3.793,2.441 5.774,3.529c-0.406,1.167 -2.371,0.638 -3.254,1.23c-2.586,1.075 -5.334,1.571 -7.93,2.613c-3.129,0.489 -6.069,1.881 -9.25,2.047c-2.775,0.813 -5.556,-0.777 -7.924,-2.044c-0.83,-0.609 -2.229,-1.068 -2.335,-2.229c8.003,-1.584 16.076,-2.93 23.917,-5.239Z" style="fill:#fcfcfc;fill-rule:nonzero;"/><path d="M84.329,114.181c2.603,0.831 5.11,2.385 7.795,3.251c0.004,0.129 0.01,0.384 0.017,0.513c-1.769,0.387 -3.426,1.131 -5.04,1.928c-10.54,2.58 -21.07,5.827 -32.003,6.075c0.439,-1.362 1.021,-2.93 2.407,-3.565c2.388,-1.495 5.199,-2.027 7.898,-2.698c6.333,-1.75 12.666,-3.529 18.926,-5.504Z" style="fill:#fcfcfc;fill-rule:nonzero;"/><path d="M14.562,114.886c1.829,-0.321 3.922,-0.202 5.506,0.866c-0.602,0.926 -1.878,1.637 -1.643,2.927c0.611,2.302 2.523,4.987 1.058,7.359c-1.055,2.179 -3.969,2.334 -6.006,1.551c-2.474,-0.877 -4.002,-3.344 -4.094,-5.904c-0.615,-3.204 1.703,-6.865 5.179,-6.799Z" style="fill:#fcfcfc;fill-rule:nonzero;"/><path d="M28.786,117.227c2.642,-0.539 5.45,-0.168 7.831,1.108c2.457,1.181 4.402,3.754 3.965,6.621c-3.985,-0.142 -7.937,0.397 -11.912,0.371c-1.611,0.443 -3.562,0.327 -4.911,-0.745c-1.204,-1.99 -2.1,-4.15 -2.914,-6.323c-0.522,-0.896 1.469,-1.452 1.869,-0.893c2.017,-0.099 4.064,0.176 6.072,-0.139Z" style="fill:#fcfcfc;fill-rule:nonzero;"/><path d="M174.962,119.192c3.142,-0.665 6.502,1.458 7.408,4.494c1.224,3.784 -1.647,8.771 -5.874,8.562c-2.665,0.692 -5.301,-2.126 -4.388,-4.669c0.403,-2.097 1.782,-3.86 2.381,-5.861c-0.943,-0.744 -2.093,-1.19 -3,-1.964c1.165,-0.162 2.305,-0.38 3.473,-0.562Z" style="fill:#fcfcfc;fill-rule:nonzero;"/><path d="M162.395,121.527c2.361,-0.321 4.762,-0.232 7.146,-0.172c1.049,0.337 2.355,1.203 1.641,2.606c-0.433,1.415 -1.164,2.718 -2.041,3.912c-1.313,1.872 -3.902,1.343 -5.87,1.366c-3.939,-0.833 -8.076,0.443 -11.912,-0.979c0.096,-2.513 1.938,-4.567 3.734,-6.168c2.381,-0.661 4.878,-0.235 7.302,-0.565Z" style="fill:#fcfcfc;fill-rule:nonzero;"/><path d="M23.137,127.059c0.142,-0.033 0.427,-0.099 0.569,-0.132c0.152,2.92 -3.201,4.389 -5.635,5.004c0.737,-2.289 2.999,-3.81 5.066,-4.872Z" style="fill:#fcfcfc;fill-rule:nonzero;"/><path d="M168.635,131.296c0.973,-0.321 1.505,0.873 2.167,1.356c0.734,0.797 1.769,1.151 2.708,1.627c0.337,1.855 -2.255,2.024 -3.221,0.863c-0.913,-0.889 -2.943,-2.5 -1.654,-3.846Z" style="fill:#fcfcfc;fill-rule:nonzero;"/></g></svg>