<?xml version="1.0" encoding="UTF-8" standalone="no"?><!DOCTYPE svg PUBLIC "-//W3C//DTD SVG 1.1//EN" "http://www.w3.org/Graphics/SVG/1.1/DTD/svg11.dtd"><svg width="100%" height="100%" viewBox="0 0 16 16" version="1.1" xmlns="http://www.w3.org/2000/svg" xmlns:xlink="http://www.w3.org/1999/xlink" xml:space="preserve" xmlns:serif="http://www.serif.com/" style="fill-rule:evenodd;clip-rule:evenodd;stroke-linejoin:round;stroke-miterlimit:2;"><path d="M4.784,5.727c-0.015,0.099 -0.027,0.199 -0.044,0.299c-0.003,0.071 -0.001,0.142 -0.015,0.212c-0.001,0.199 -0.003,0.398 0.002,0.597c0.018,0.082 0.002,0.167 0.02,0.249c0.017,0.127 0.035,0.253 0.055,0.379c0.005,0.04 0.011,0.08 0.021,0.119c0.005,0.02 0.01,0.04 0.013,0.06l0.01,0.027c0.003,0.037 0.013,0.074 0.026,0.109c0.007,0.04 0.016,0.08 0.025,0.12c0.013,0.041 0.023,0.082 0.036,0.122c0.018,0.044 0.029,0.09 0.042,0.135c0.015,0.058 0.038,0.115 0.062,0.17c0.012,0.039 0.026,0.077 0.04,0.115c0.105,0.272 0.237,0.533 0.376,0.789c0.043,0.06 0.072,0.129 0.115,0.19c0.175,0.289 0.38,0.558 0.59,0.822c0.056,0.083 0.109,0.169 0.151,0.261c0.015,0.044 0.028,0.089 0.039,0.135c0.007,0.075 0.009,0.15 -0.001,0.224c-0.008,0.03 -0.015,0.061 -0.022,0.091c-0.023,0.045 -0.049,0.088 -0.073,0.133c-0.047,0.044 -0.089,0.094 -0.141,0.132c-0.105,0.074 -0.22,0.133 -0.339,0.18c-0.099,0.045 -0.203,0.079 -0.303,0.123c-0.089,0.029 -0.173,0.068 -0.259,0.105c-0.058,0.03 -0.117,0.056 -0.177,0.08c-0.505,0.248 -0.996,0.523 -1.48,0.809c-0.089,0.062 -0.182,0.119 -0.273,0.178c-0.112,0.084 -0.229,0.16 -0.337,0.248c-0.303,0.242 -0.589,0.524 -0.754,0.88c-0.026,0.048 -0.046,0.098 -0.064,0.149c-0.12,-0.128 -0.224,-0.268 -0.333,-0.405c-0.096,-0.127 -0.189,-0.256 -0.278,-0.388c-0.062,-0.09 -0.116,-0.184 -0.178,-0.273c-0.016,-0.033 -0.036,-0.065 -0.055,-0.096c-0.172,-0.291 -0.325,-0.595 -0.46,-0.905c-0.036,-0.066 -0.054,-0.141 -0.087,-0.208c-0.03,-0.081 -0.061,-0.161 -0.089,-0.243c-0.017,-0.041 -0.032,-0.082 -0.043,-0.124c-0.006,-0.015 -0.012,-0.03 -0.017,-0.045c-0.016,-0.075 -0.048,-0.145 -0.072,-0.218c-0.003,-0.018 -0.007,-0.036 -0.011,-0.055c-0.035,-0.117 -0.069,-0.235 -0.096,-0.355c-0.004,-0.019 -0.008,-0.039 -0.012,-0.058c-0.018,-0.064 -0.029,-0.13 -0.045,-0.194c-0.036,-0.149 -0.044,-0.304 -0.082,-0.453c-0.011,-0.119 -0.03,-0.238 -0.042,-0.358c-0.004,-0.05 0.005,-0.101 -0.011,-0.149c-0.004,-0.057 -0.001,-0.115 -0.012,-0.171c-0.012,-0.13 0.002,-0.262 -0.008,-0.392c-0.007,-0.075 0.007,-0.149 0.004,-0.223c0.002,-0.108 -0.009,-0.216 0.01,-0.323c0.004,-0.044 0.002,-0.088 0.004,-0.132c0.022,-0.066 0.004,-0.136 0.02,-0.203c0.01,-0.1 0.026,-0.199 0.035,-0.298c0.033,-0.155 0.05,-0.313 0.083,-0.469c0.006,-0.021 0.01,-0.044 0.014,-0.066c0.011,-0.036 0.02,-0.072 0.029,-0.107c0.012,-0.061 0.023,-0.121 0.038,-0.181c0.011,-0.04 0.021,-0.079 0.036,-0.117c0.012,-0.05 0.028,-0.099 0.039,-0.149c0.013,-0.041 0.026,-0.081 0.036,-0.122c0.018,-0.045 0.033,-0.093 0.048,-0.139c0.015,-0.053 0.031,-0.106 0.056,-0.155l0.005,-0.029c0.013,-0.03 0.025,-0.06 0.035,-0.091c0.015,-0.046 0.032,-0.092 0.054,-0.135c0.021,-0.054 0.042,-0.107 0.06,-0.162c0.077,-0.151 0.135,-0.311 0.217,-0.46c0.09,-0.191 0.199,-0.372 0.305,-0.555c0.194,-0.308 0.398,-0.61 0.631,-0.889c0.095,-0.121 0.2,-0.232 0.299,-0.349c0.142,-0.142 0.284,-0.285 0.427,-0.427c0.298,-0.279 0.621,-0.531 0.956,-0.763c0.044,-0.026 0.084,-0.056 0.126,-0.084c0.067,-0.035 0.127,-0.081 0.193,-0.118c0.232,-0.146 0.477,-0.269 0.723,-0.388c0.073,-0.041 0.153,-0.069 0.23,-0.104c0.03,-0.014 0.061,-0.029 0.092,-0.041c0.039,-0.014 0.079,-0.027 0.116,-0.047c0.031,-0.012 0.062,-0.025 0.094,-0.037c0.066,-0.023 0.133,-0.043 0.195,-0.074c0.027,-0.009 0.054,-0.017 0.081,-0.026c0.143,-0.047 0.286,-0.093 0.433,-0.13c0.037,-0.014 0.076,-0.025 0.115,-0.036c0.038,-0.008 0.077,-0.016 0.114,-0.026c0.053,-0.007 0.105,-0.023 0.157,-0.035c0.028,-0.008 0.056,-0.013 0.084,-0.021c0.039,-0.01 0.079,-0.017 0.119,-0.021c0.03,-0.007 0.061,-0.011 0.092,-0.018c0.046,-0.008 0.092,-0.017 0.138,-0.021c0.131,-0.027 0.264,-0.046 0.397,-0.056c0.062,-0.021 0.129,0.002 0.191,-0.02c0.098,0.001 0.195,-0.023 0.293,-0.016c0.081,0.006 0.159,-0.021 0.24,-0.015c0.156,0.004 0.312,-0.011 0.466,0.015c0.125,-0.005 0.251,0.007 0.375,0.023c0.056,0.008 0.115,-0.004 0.17,0.014c0.128,0.01 0.257,0.025 0.383,0.055c0.047,0.004 0.093,0.012 0.139,0.021c0.156,0.023 0.308,0.063 0.461,0.096c0.074,0.018 0.149,0.033 0.22,0.061c0.154,0.032 0.301,0.089 0.45,0.136c0.021,0.006 0.042,0.013 0.063,0.02c0.056,0.02 0.111,0.043 0.168,0.062c0.047,0.015 0.093,0.034 0.138,0.056c0.086,0.036 0.175,0.066 0.258,0.11c0.324,0.134 0.631,0.308 0.932,0.487c0.454,0.286 0.888,0.607 1.272,0.981c0.134,0.112 0.253,0.241 0.368,0.372c0.353,0.372 0.659,0.787 0.931,1.222c0.211,0.351 0.402,0.714 0.556,1.093c0.023,0.071 0.063,0.136 0.084,0.208c0.025,0.066 0.046,0.133 0.075,0.198c0.008,0.027 0.017,0.053 0.026,0.08c0.046,0.144 0.093,0.287 0.129,0.433c0.014,0.039 0.025,0.078 0.037,0.117c0.018,0.09 0.041,0.18 0.06,0.27c0.008,0.028 0.013,0.057 0.021,0.085c0.017,0.069 0.025,0.14 0.039,0.21c0.009,0.046 0.017,0.092 0.021,0.139c0.007,0.027 0.011,0.054 0.015,0.082c0.015,0.067 0.022,0.136 0.029,0.205c0.024,0.149 0.024,0.301 0.042,0.451c0.01,0.063 0.004,0.128 0.006,0.192c0.027,0.181 0.011,0.366 0.014,0.549c-0.024,0.111 -0.004,0.224 -0.025,0.336c-0.003,0.038 -0.002,0.077 -0.005,0.115c-0.02,0.057 -0.004,0.118 -0.016,0.176c-0.019,0.11 -0.02,0.222 -0.045,0.331c-0.014,0.071 -0.024,0.144 -0.037,0.216c-0.007,0.032 -0.01,0.064 -0.016,0.096c-0.007,0.04 -0.015,0.079 -0.022,0.119c-0.008,0.028 -0.013,0.057 -0.021,0.085c-0.013,0.052 -0.028,0.103 -0.035,0.157c-0.011,0.037 -0.02,0.076 -0.026,0.115c-0.014,0.037 -0.025,0.076 -0.036,0.115c-0.024,0.085 -0.045,0.171 -0.074,0.255c-0.025,0.059 -0.039,0.122 -0.06,0.182c-0.008,0.027 -0.017,0.053 -0.027,0.078c-0.016,0.046 -0.035,0.091 -0.052,0.137c-0.034,0.107 -0.083,0.208 -0.12,0.314c-0.079,0.163 -0.146,0.333 -0.233,0.492c-0.038,0.092 -0.097,0.173 -0.137,0.265c-0.057,0.082 -0.098,0.174 -0.152,0.258c-0.234,0.376 -0.493,0.738 -0.787,1.07c-0.009,-0.019 -0.018,-0.037 -0.026,-0.055c-0.045,-0.123 -0.111,-0.238 -0.181,-0.348c-0.088,-0.141 -0.203,-0.261 -0.31,-0.387c-0.059,-0.065 -0.133,-0.114 -0.193,-0.178c-0.121,-0.105 -0.251,-0.2 -0.379,-0.297c-0.057,-0.033 -0.11,-0.07 -0.163,-0.107c-0.183,-0.116 -0.371,-0.225 -0.563,-0.323c-0.122,-0.064 -0.246,-0.122 -0.368,-0.185c-0.213,-0.101 -0.429,-0.195 -0.646,-0.289c-0.039,-0.013 -0.077,-0.026 -0.115,-0.041c-0.02,-0.006 -0.04,-0.012 -0.06,-0.018c-0.093,-0.045 -0.192,-0.076 -0.289,-0.112c-0.026,-0.013 -0.053,-0.025 -0.081,-0.035c-0.203,-0.08 -0.401,-0.176 -0.581,-0.298c-0.073,-0.052 -0.138,-0.115 -0.19,-0.187c-0.013,-0.031 -0.024,-0.062 -0.034,-0.094c-0.027,-0.094 -0.03,-0.192 -0.022,-0.289c0.012,-0.033 0.014,-0.068 0.022,-0.102c0.008,-0.032 0.017,-0.064 0.027,-0.095c0.114,-0.333 0.353,-0.6 0.559,-0.879c0.078,-0.101 0.151,-0.205 0.221,-0.311c0.017,-0.028 0.034,-0.054 0.049,-0.082c0.118,-0.209 0.223,-0.424 0.315,-0.645c0.02,-0.038 0.033,-0.078 0.047,-0.118c0.029,-0.087 0.068,-0.169 0.096,-0.256c0.075,-0.227 0.144,-0.457 0.191,-0.693c0.006,-0.036 0.014,-0.071 0.021,-0.107c0.031,-0.125 0.043,-0.253 0.058,-0.381c0.015,-0.084 -0.002,-0.171 0.017,-0.255c0.007,-0.151 0.001,-0.303 0.003,-0.454c-0.011,-0.147 -0.018,-0.294 -0.035,-0.44c0.007,-0.002 0.013,-0.005 0.018,-0.005c0.634,-0.012 1.061,0.479 1.492,0.263c0.059,-0.051 0.057,-0.414 -0.021,-0.618c-0.058,-0.152 -0.755,-0.543 -0.864,-0.613c-0.129,-0.084 -0.681,-0.661 -1.029,-1.054c-0.189,-0.203 -0.315,-0.452 -0.46,-0.685c-0.237,-0.393 -0.52,-0.764 -0.874,-1.059c-0.427,-0.358 -0.958,-0.582 -1.509,-0.659c-0.858,-0.119 -1.727,0.057 -2.542,0.328c0.105,0.046 0.184,0.131 0.251,0.222c0.05,0.007 0.097,-0.026 0.144,-0.038c0.664,-0.219 1.371,-0.348 2.07,-0.265c0.518,0.062 1.03,0.258 1.425,0.605c0.214,0.18 0.38,0.408 0.542,0.634c0.412,0.575 0.566,1.091 1.102,1.566c0.327,0.289 0.567,0.785 1.005,0.784c-0.286,0.025 -0.574,-0.149 -0.801,-0.35c-0.287,-0.363 -0.283,-0.445 -0.526,-0.735c-0.34,-0.406 -0.622,-0.856 -0.949,-1.273c-0.146,-0.19 -0.305,-0.372 -0.494,-0.52c-0.551,-0.44 -1.291,-0.565 -1.978,-0.493c-0.474,0.046 -0.936,0.177 -1.381,0.342c-0.003,0.058 0.035,0.106 0.052,0.16c0.137,0.365 0.221,0.749 0.257,1.137c0.003,0.138 0.033,0.289 -0.021,0.419c-0.037,-0.167 -0.085,-0.331 -0.128,-0.497c-0.005,0.001 -0.015,0.003 -0.02,0.005c-0.245,0.389 -0.792,1.05 -1.189,1.273c-0.342,0.186 -0.251,0.157 -0.645,0.099c0.538,0.023 0.722,-0.47 1.116,-0.811c0.268,-0.247 0.528,-0.535 0.628,-0.893c-0.026,-0.119 -0.072,-0.245 -0.147,-0.342c-0.076,0.391 -0.352,0.704 -0.632,0.97c-0.269,0.246 -0.658,0.612 -0.879,0.758c-0.276,0.183 -1.03,0.457 -0.987,0.806c0.032,0.275 0.193,0.241 0.322,0.289c0.023,0.008 0.801,0.008 1.166,0.082Zm2.259,-2.572c0.068,-0.027 0.141,-0.122 0.213,-0.053c-0.029,0.03 -0.062,0.056 -0.09,0.087c-0.015,0.058 0.029,0.111 0.027,0.168c-0.035,0.045 -0.112,0.077 -0.15,0.018c-0.04,-0.034 0.048,-0.059 0.017,-0.096c-0.056,-0.034 -0.117,0.025 -0.174,-0.005c-0.05,-0.016 -0.07,-0.089 -0.036,-0.129c0.061,-0.032 0.131,-0.005 0.193,0.01Zm0.783,-0.139c0.053,0.02 0.104,0.043 0.157,0.065c0.064,0.033 0.13,-0.019 0.194,-0.025c0.02,0.032 0.031,0.069 0.038,0.106c-0.04,0.014 -0.079,0.03 -0.119,0.044c-0.023,0.06 0.035,0.127 0.055,0.037c0.025,0.027 0.021,0.066 0.026,0.099c-0.035,0.02 -0.074,0.031 -0.114,0.027c-0.04,-0.05 -0.046,-0.115 -0.068,-0.174c-0.049,-0.046 -0.112,-0.073 -0.166,-0.111c-0.001,-0.023 -0.002,-0.046 -0.003,-0.068Zm-0.481,0.049c0.009,-0.036 0.045,-0.02 0.05,0.008c0.027,0.058 0.038,0.122 0.061,0.183c0.105,0.047 0.217,0.007 0.32,-0.027c-0.001,-0.029 -0.001,-0.057 -0.001,-0.086c0.027,0.082 0.015,0.172 -0.047,0.236c-0.09,0.049 -0.195,0.018 -0.291,0.001c-0.04,-0.101 -0.063,-0.21 -0.092,-0.315Zm-0.547,-0.605c0.099,-0.012 0.152,0.083 0.164,0.169c0.073,0.039 0.199,0.047 0.171,0.161c-0.081,-0.007 -0.152,-0.055 -0.232,-0.069c-0.052,-0.008 -0.088,0.037 -0.131,0.057c-0.035,-0.001 -0.05,-0.042 -0.07,-0.065c0.013,-0.043 0.035,-0.082 0.063,-0.116c0.001,0.025 0.001,0.051 0.001,0.077c0.1,-0.022 0,-0.148 0.034,-0.214Zm1.218,-0.029c0.031,-0.012 0.071,-0.056 0.1,-0.02c0.065,0.053 -0.001,0.137 0.03,0.202c0.062,-0.031 0.106,0.023 0.146,0.062l0.006,0.049c-0.046,0.016 -0.094,0.031 -0.143,0.026c-0.051,-0.011 -0.06,-0.084 -0.112,-0.091c-0.04,0.023 -0.076,0.051 -0.115,0.074c-0.013,-0.04 -0.019,-0.088 0.021,-0.116c0.06,-0.044 0.048,-0.122 0.067,-0.186Zm-0.887,-0.022c0.061,-0.118 0.177,-0.234 0.319,-0.218c0.117,0.025 0.234,0.068 0.327,0.146c0.11,0.136 0.026,0.327 0.106,0.474c0.009,0.029 0.039,0.078 -0,0.096c-0.051,0.005 -0.103,0.003 -0.154,0.005c-0.023,0.056 -0.004,0.117 -0,0.175c-0.089,0.027 -0.182,0.033 -0.274,0.038c-0.007,-0.053 -0.011,-0.114 -0.06,-0.147c-0.043,-0.051 -0.108,-0.011 -0.158,0.004c-0.063,-0.038 -0.07,-0.116 -0.025,-0.171c-0.009,-0.049 -0.019,-0.099 -0.016,-0.149c0.031,0.046 0.025,0.106 0.055,0.154c0.073,0.019 0.135,-0.032 0.197,-0.059c-0.003,-0.051 -0.001,-0.109 -0.038,-0.149c-0.065,-0.038 -0.148,-0.002 -0.197,0.048c-0.042,-0.037 -0.005,-0.085 0.001,-0.128c0.008,-0.054 -0.002,-0.108 -0.012,-0.161c0.007,0.098 -0.015,0.19 -0.037,0.283c-0.032,-0.075 -0.074,-0.16 -0.034,-0.241Zm0.401,0.323c-0.019,0.071 -0.05,0.145 -0.038,0.22c0.03,-0.008 0.058,-0.02 0.084,-0.036c0.023,0.006 0.045,0.012 0.068,0.017c-0.018,-0.076 -0.061,-0.145 -0.114,-0.201Zm0.176,-0.414c0.009,0.069 0.002,0.161 0.079,0.192c-0.001,0.018 -0.003,0.036 -0.005,0.054c-0.052,0.006 -0.117,-0.022 -0.16,0.013c-0.01,0.058 -0.008,0.118 -0.005,0.177c0.061,0.023 0.125,0.032 0.19,0.03c0.028,-0.082 -0.018,-0.166 0.002,-0.25c0.016,-0.045 -0.037,-0.061 -0.065,-0.082c-0.009,-0.045 -0.019,-0.091 -0.036,-0.134Z" style="fill-rule:nonzero;"/></svg>